<?xml version="1.0" standalone="no"?><!DOCTYPE svg PUBLIC "-//W3C//DTD SVG 1.1//EN" "http://www.w3.org/Graphics/SVG/1.1/DTD/svg11.dtd"><svg t="1645769338648" class="icon" viewBox="0 0 1024 1024" version="1.1" xmlns="http://www.w3.org/2000/svg" p-id="1009" width="64" height="64" xmlns:xlink="http://www.w3.org/1999/xlink"><defs><style type="text/css"></style></defs><path d="M512.2 55.6c61.4 0 121 12 177.1 35.7 54.2 22.9 102.8 55.7 144.6 97.5s74.6 90.5 97.5 144.6c23.7 56.1 35.7 115.7 35.7 177.1s-12 121-35.7 177.1c-22.9 54.2-55.7 102.8-97.5 144.6s-90.5 74.6-144.6 97.5c-56.1 23.7-115.7 35.7-177.1 35.7s-121-12-177.1-35.7c-54.2-22.9-102.8-55.7-144.6-97.5S115.9 741.7 93 687.6c-23.8-56-35.8-115.6-35.8-177s12-121 35.7-177.1c22.9-54.2 55.7-102.8 97.5-144.6s90.5-74.6 144.6-97.5c56.2-23.8 115.8-35.8 177.2-35.8m0-40c-273.4 0-495 221.6-495 495s221.6 495 495 495 495-221.6 495-495-221.6-495-495-495z" fill="#1296db" p-id="1010"></path><path d="M493.8 834.9c-1.4 0-2.8-0.1-4.2-0.4-9.2-2-15.8-10.1-15.8-19.6V591.5H367.9c-6.8 0-13.1-3.4-16.8-9.1-3.7-5.7-4.3-12.8-1.5-19l162.7-365.2c3.8-8.6 13.2-13.4 22.4-11.4s15.8 10.1 15.8 19.6v223.4h105.9c6.8 0 13.1 3.4 16.8 9.1 3.7 5.7 4.3 12.8 1.5 19L512.1 823a19.97 19.97 0 0 1-18.3 11.9z m-95.1-283.4h95.1c11 0 20 9 20 20v149.4l111.9-251.1h-95.1c-11 0-20-9-20-20V300.3L398.7 551.5z" fill="#1296db" p-id="1011"></path></svg>